<?xml version="1.0" encoding="utf-8"?>
<!-- Generator: Adobe Illustrator 23.0.0, SVG Export Plug-In . SVG Version: 6.00 Build 0)  -->
<svg version="1.1" id="Layer_1" xmlns="http://www.w3.org/2000/svg" xmlns:xlink="http://www.w3.org/1999/xlink" x="0px" y="0px"
	 viewBox="0 0 245 74" style="enable-background:new 0 0 245 74;" xml:space="preserve">
<style type="text/css">
	.st0{fill:#EEAD21;}
	.st1{fill:#F1E779;}
	.st2{fill:#122618;}
</style>
<path class="st0" d="M46.25,40.93v5.52h-4.78c-0.37,0-0.66,0.02-0.88,0.06s-0.43,0.15-0.63,0.35c-0.2,0.2-0.29,0.46-0.29,0.81
	c0,0.39,0.13,0.69,0.39,0.88c0.26,0.2,0.5,0.31,0.73,0.33c0.23,0.03,0.57,0.04,1.01,0.04h4.89v7.03H40.7
	c-2.45,0-4.36-0.61-5.74-1.84c-1.55-1.4-2.32-3.13-2.32-5.19V38.11c0-1.81,0.71-3.38,2.13-4.71s3.04-1.98,4.86-1.98h7.06v7.06H41.8
	c-1.1,0-1.66,0.41-1.66,1.22c0,0.83,0.6,1.25,1.8,1.25h4.31V40.93z"/>
<path class="st0" d="M49.52,55.93V37.54c0-1.82,0.7-3.39,2.1-4.73c1.4-1.34,2.99-2,4.78-2c2.67,0,4.68,1.15,6.03,3.46
	c0.56-1.03,1.4-1.86,2.5-2.5s2.24-0.96,3.42-0.96c2.21,0,3.94,0.74,5.2,2.22s1.9,3.35,1.9,5.61v17.29h-7.21V39.75
	c0-0.93-0.33-1.4-0.99-1.4c-0.37,0-0.65,0.15-0.84,0.46c-0.2,0.31-0.29,0.66-0.29,1.05v16.07h-7.25V39.75c0-0.93-0.33-1.4-0.99-1.4
	c-0.74,0-1.11,0.47-1.11,1.4v16.18L49.52,55.93L49.52,55.93z"/>
<path class="st0" d="M86.52,47.47v-6.44c0.62,0,1.13-0.13,1.55-0.4c0.42-0.27,0.62-0.69,0.62-1.25c0-0.47-0.16-0.88-0.5-1.23
	c-0.33-0.36-0.73-0.53-1.19-0.53c-0.52,0-0.92,0.21-1.21,0.63c-0.29,0.42-0.44,0.89-0.44,1.43v16.26h-7.32V40.2
	c0-1.45,0.16-2.55,0.48-3.31c0.66-1.76,1.79-3.22,3.4-4.36s3.35-1.71,5.24-1.71c2.43,0,4.59,0.85,6.49,2.56
	c1.9,1.7,2.85,3.77,2.85,6.2c0,2.67-0.98,4.78-2.94,6.33c-1.38,1.05-3.22,1.58-5.56,1.58h-1.47V47.47z"/>
<path class="st0" d="M106.97,43.65v6.44h-1.99v5.85h-7.39V40.12c0-2.82,0.83-5.08,2.48-6.77s3.88-2.54,6.67-2.54
	c2.57,0,4.67,0.9,6.27,2.7c1.61,1.8,2.41,4,2.41,6.6v15.82h-7.39V40.12c0-0.51-0.12-0.97-0.35-1.36c-0.23-0.39-0.6-0.6-1.09-0.63
	c-0.51,0-0.91,0.19-1.19,0.57s-0.42,0.85-0.42,1.42v3.53H106.97z"/>
<path class="st0" d="M118.01,55.93V39.79c0-2.45,0.84-4.56,2.52-6.33c1.68-1.76,3.73-2.65,6.16-2.65c2.57,0,4.73,0.85,6.46,2.56
	c1.73,1.7,2.59,3.84,2.59,6.42v16.14h-7.32V40.04c0-0.49-0.15-0.9-0.44-1.23s-0.67-0.5-1.14-0.5c-0.49,0-0.88,0.17-1.16,0.5
	s-0.42,0.74-0.42,1.23v15.89H118.01z"/>
<path class="st0" d="M147.69,43.65v6.44h-1.99v5.85h-7.39V40.12c0-2.82,0.83-5.08,2.48-6.77c1.66-1.69,3.88-2.54,6.68-2.54
	c2.58,0,4.67,0.9,6.27,2.7c1.61,1.8,2.41,4,2.41,6.6v15.82h-7.39V40.12c0-0.51-0.12-0.97-0.35-1.36s-0.59-0.6-1.09-0.63
	c-0.51,0-0.91,0.19-1.19,0.57s-0.42,0.85-0.42,1.42v3.53H147.69z"/>
<path class="st0" d="M166.34,38.72v17.21h-7.36v-24.5h10.96c1.69,0,3.1,0.2,4.23,0.59c2.38,0.83,4.36,2.3,5.94,4.41
	c1.58,2.11,2.37,4.4,2.37,6.88c0,3.68-1.2,6.71-3.6,9.1s-5.44,3.61-9.12,3.66c-0.49,0-1.25-0.02-2.28-0.07v-7.21h1.87
	c1.6,0,2.95-0.45,4.06-1.36c1.12-0.91,1.67-2.14,1.67-3.71c0-1.4-0.5-2.58-1.51-3.55s-2.21-1.45-3.6-1.45L166.34,38.72L166.34,38.72
	z"/>
<path class="st0" d="M193.45,43.65v6.44h-1.99v5.85h-7.39V40.12c0-2.82,0.83-5.08,2.48-6.77c1.66-1.69,3.88-2.54,6.68-2.54
	c2.57,0,4.66,0.9,6.27,2.7s2.41,4,2.41,6.6v15.82h-7.39V40.12c0-0.51-0.12-0.97-0.35-1.36s-0.6-0.6-1.08-0.63
	c-0.51,0-0.91,0.19-1.2,0.57c-0.28,0.38-0.42,0.85-0.42,1.42v3.53H193.45z"/>
<path class="st0" d="M216.73,31.33v6.99c-0.54-0.2-0.95-0.29-1.22-0.29c-0.56,0-1.04,0.21-1.43,0.64c-0.39,0.43-0.59,0.91-0.59,1.45
	c0,0.44,0.23,1.09,0.68,1.93c0.45,0.85,0.91,1.8,1.36,2.87c0.45,1.07,0.68,2.1,0.68,3.11c0,2.43-0.88,4.46-2.65,6.09
	s-3.87,2.45-6.33,2.45c-1.03,0-2.12-0.27-3.28-0.81v-7.1c0.69,0.39,1.3,0.59,1.84,0.59c0.56,0,1.08-0.19,1.54-0.55
	c0.47-0.37,0.7-0.82,0.7-1.36c0-0.39-0.22-0.99-0.66-1.8s-0.88-1.78-1.32-2.91s-0.66-2.24-0.66-3.34c0-2.28,0.82-4.26,2.46-5.94
	c1.64-1.68,3.61-2.52,5.89-2.52C214.75,30.81,215.75,30.98,216.73,31.33z"/>
<path class="st0" d="M229.57,47.18h-6.66v-1.36c0-1.18,0.07-2.05,0.22-2.61c0.2-0.69,0.56-1.26,1.11-1.71
	c0.54-0.45,1.07-0.77,1.58-0.94c0.52-0.17,0.98-0.42,1.4-0.75c0.41-0.33,0.62-0.74,0.62-1.23c0-0.44-0.16-0.81-0.48-1.1
	c-0.32-0.29-0.7-0.44-1.14-0.44c-1.05,0-1.61,0.81-1.65,2.43h-6.22c0-2.48,0.75-4.54,2.26-6.2s3.45-2.48,5.83-2.48
	c2.21,0,4.09,0.75,5.64,2.24c1.56,1.5,2.34,3.35,2.34,5.55c0,2.85-1.3,4.92-3.9,6.22C229.88,45.08,229.57,45.88,229.57,47.18z
	 M222.14,52.18c0-1.13,0.4-2.13,1.21-3s1.78-1.3,2.9-1.3c1.18,0,2.21,0.42,3.09,1.27c0.88,0.85,1.32,1.86,1.32,3.03
	c0,1.18-0.42,2.18-1.27,3c-0.85,0.82-1.86,1.23-3.03,1.23c-1.15,0-2.15-0.42-2.98-1.25C222.55,54.33,222.14,53.33,222.14,52.18z"/>
<path class="st0" d="M236.15,52.18c0-1.13,0.4-2.13,1.21-3s1.78-1.3,2.91-1.3c1.2,0,2.24,0.42,3.11,1.27
	c0.87,0.85,1.31,1.86,1.31,3.03c0,1.18-0.42,2.18-1.27,3c-0.84,0.82-1.86,1.23-3.03,1.23c-1.15,0-2.15-0.42-2.98-1.25
	C236.56,54.33,236.15,53.33,236.15,52.18z M243.84,31.4l-0.11,15.49h-6.36l-0.4-15.49L243.84,31.4L243.84,31.4z"/>
<path class="st1" d="M155.85,69.5v3.74c-0.28,0.05-0.6,0.08-0.96,0.08c-1.38,0-2.55-0.52-3.52-1.55s-1.45-2.25-1.45-3.64
	c0-1.35,0.5-2.51,1.5-3.47s2.18-1.43,3.53-1.43c1.38,0,2.57,0.49,3.58,1.47c1,0.98,1.5,2.16,1.5,3.54v4.88h-3.72v-4.48
	c0-0.43-0.12-0.79-0.37-1.1c-0.24-0.3-0.57-0.46-0.99-0.46c-0.36,0-0.68,0.13-0.96,0.4c-0.29,0.27-0.43,0.58-0.43,0.94
	c0,0.37,0.13,0.69,0.38,0.96s0.57,0.41,0.94,0.44C155.23,69.82,155.55,69.71,155.85,69.5z"/>
<path class="st1" d="M166.46,63.35v3.9c-0.21-0.11-0.42-0.16-0.62-0.16c-0.32,0-0.57,0.11-0.74,0.34c-0.17,0.23-0.26,0.5-0.26,0.84
	v4.86h-3.7V67.3c0-1.1,0.41-2.05,1.24-2.85c0.82-0.8,1.79-1.21,2.89-1.21C165.66,63.23,166.06,63.27,166.46,63.35z"/>
<path class="st1" d="M170.16,59.7v3.72h1.63v3.82h-1.63c0,0.66,0.13,1.17,0.38,1.51c0.25,0.35,0.7,0.52,1.33,0.52v3.84
	c-1.54,0-2.81-0.48-3.82-1.44s-1.51-2.21-1.51-3.75V59.7H170.16z"/>
<path class="st1" d="M182.27,68.86h-5.7c-0.08-0.32-0.12-0.56-0.12-0.72c0-0.35,0.06-0.68,0.18-0.99h1.99
	c-0.07-0.32-0.21-0.58-0.44-0.78c-0.22-0.2-0.5-0.3-0.81-0.3c-0.5,0-0.9,0.21-1.18,0.63s-0.42,0.89-0.42,1.42s0.14,1.01,0.41,1.45
	s0.65,0.66,1.14,0.66c0.4,0,0.76-0.18,1.1-0.54l2.09,2.49c-0.97,0.76-2.04,1.13-3.23,1.13c-1.42,0-2.63-0.51-3.62-1.52
	c-0.99-1.02-1.48-2.23-1.48-3.63c0-1.33,0.5-2.48,1.51-3.47c1.01-0.98,2.18-1.47,3.52-1.47c1.37,0,2.55,0.49,3.55,1.46
	c1,0.98,1.5,2.14,1.5,3.5c0,0.07,0,0.17-0.01,0.33C182.27,68.67,182.27,68.78,182.27,68.86z"/>
<path class="st1" d="M189.08,63.57v3.82c-0.5,0.01-0.86,0.13-1.06,0.34s-0.32,0.58-0.36,1.1c-0.11,1.39-0.57,2.5-1.38,3.31
	c-0.82,0.82-1.92,1.23-3.3,1.25h-0.9v-3.84c0.61,0,1.07-0.12,1.36-0.37c0.3-0.24,0.46-0.67,0.49-1.29c0.05-1.42,0.4-2.49,1.02-3.22
	c0.63-0.73,1.64-1.1,3.02-1.1H189.08z"/>
<path class="st1" d="M194.83,69.5v3.74c-0.28,0.05-0.6,0.08-0.95,0.08c-1.38,0-2.56-0.52-3.53-1.55s-1.45-2.25-1.45-3.64
	c0-1.35,0.5-2.51,1.5-3.47s2.18-1.43,3.53-1.43c1.38,0,2.57,0.49,3.57,1.47s1.5,2.16,1.5,3.54v4.88h-3.72v-4.48
	c0-0.43-0.12-0.79-0.37-1.1c-0.25-0.3-0.58-0.46-0.99-0.46c-0.36,0-0.68,0.13-0.97,0.4s-0.43,0.58-0.43,0.94
	c0,0.37,0.13,0.69,0.38,0.96s0.56,0.41,0.94,0.44C194.21,69.82,194.54,69.71,194.83,69.5z"/>
<path class="st1" d="M208.77,73.12h-3.6v-5.47c0-0.24-0.07-0.44-0.19-0.6c-0.13-0.16-0.3-0.24-0.53-0.24
	c-0.21,0-0.38,0.08-0.52,0.25c-0.13,0.17-0.2,0.36-0.2,0.59v5.47h-3.6V67.7c0-1.21,0.41-2.26,1.22-3.15
	c0.81-0.89,1.81-1.33,3.01-1.33c1.31,0,2.38,0.46,3.19,1.39c0.82,0.92,1.23,2.05,1.23,3.39v5.12H208.77z"/>
<path class="st1" d="M215.3,69.5v3.74c-0.28,0.05-0.6,0.08-0.95,0.08c-1.38,0-2.56-0.52-3.52-1.55c-0.97-1.03-1.45-2.25-1.45-3.64
	c0-1.35,0.5-2.51,1.5-3.47s2.18-1.43,3.54-1.43c1.38,0,2.57,0.49,3.57,1.47s1.5,2.16,1.5,3.54v4.88h-3.72v-4.48
	c0-0.43-0.12-0.79-0.37-1.1c-0.24-0.3-0.57-0.46-0.98-0.46c-0.36,0-0.68,0.13-0.97,0.4c-0.28,0.27-0.43,0.58-0.43,0.94
	c0,0.37,0.13,0.69,0.38,0.96s0.56,0.41,0.93,0.44C214.68,69.82,215.01,69.71,215.3,69.5z"/>
<path class="st1" d="M224.24,59.84v13.28h-3.64V59.84H224.24z"/>
<path class="st1" d="M234.89,68.86h-5.69c-0.08-0.32-0.12-0.56-0.12-0.72c0-0.35,0.06-0.68,0.18-0.99h1.99
	c-0.07-0.32-0.21-0.58-0.44-0.78s-0.5-0.3-0.82-0.3c-0.5,0-0.9,0.21-1.17,0.63c-0.28,0.42-0.42,0.89-0.42,1.42s0.14,1.01,0.41,1.45
	s0.65,0.66,1.14,0.66c0.4,0,0.76-0.18,1.1-0.54l2.09,2.49c-0.97,0.76-2.04,1.13-3.23,1.13c-1.42,0-2.62-0.51-3.61-1.52
	c-0.99-1.02-1.48-2.23-1.48-3.63c0-1.33,0.5-2.48,1.51-3.47c1.01-0.98,2.18-1.47,3.52-1.47c1.37,0,2.55,0.49,3.55,1.46
	c1,0.98,1.5,2.14,1.5,3.5c0,0.07,0,0.17-0.01,0.33C234.89,68.67,234.89,68.78,234.89,68.86z"/>
<path class="st1" d="M241.7,63.57v3.82c-0.5,0.01-0.86,0.13-1.06,0.34s-0.32,0.58-0.36,1.1c-0.11,1.39-0.57,2.5-1.38,3.31
	c-0.82,0.82-1.92,1.23-3.3,1.25h-0.9v-3.84c0.61,0,1.07-0.12,1.36-0.37c0.3-0.24,0.46-0.67,0.49-1.29c0.05-1.42,0.4-2.49,1.03-3.22
	s1.64-1.1,3.02-1.1H241.7z"/>
<path class="st0" d="M42.39,4.49c0,1.13-0.41,2.13-1.22,3s-1.78,1.31-2.9,1.31c-1.2,0-2.24-0.42-3.11-1.27s-1.3-1.86-1.3-3.04
	c0-1.17,0.42-2.17,1.27-3c0.85-0.82,1.86-1.23,3.03-1.23c1.15,0,2.15,0.42,2.98,1.25S42.39,3.33,42.39,4.49z M34.66,25.27
	l0.15-15.48h6.36l0.37,15.48H34.66z"/>
<path class="st0" d="M48.97,9.34h6.66v1.4c0,1.2-0.17,2.19-0.52,2.96c-0.34,0.77-0.75,1.32-1.23,1.64
	c-0.48,0.32-0.96,0.58-1.44,0.77c-0.48,0.2-0.89,0.44-1.23,0.72s-0.52,0.67-0.52,1.16c0,0.44,0.16,0.81,0.48,1.1
	c0.32,0.3,0.7,0.44,1.14,0.44c1.1,0,1.66-0.82,1.66-2.47h6.22c0,1.84-0.33,3.36-0.99,4.56c-0.71,1.23-1.71,2.22-3,2.98
	s-2.64,1.14-4.06,1.14c-2.23,0-4.13-0.75-5.68-2.24c-1.56-1.5-2.34-3.33-2.34-5.52c0-1.27,0.28-2.46,0.85-3.55
	c0.56-1.09,1.39-1.89,2.46-2.41c0.66-0.29,1.09-0.63,1.27-0.99C48.88,10.67,48.97,10.1,48.97,9.34z M56.44,4.34
	c0,1.13-0.41,2.13-1.23,3c-0.82,0.87-1.8,1.31-2.92,1.31c-1.18,0-2.2-0.42-3.07-1.27c-0.87-0.85-1.31-1.86-1.31-3.03
	c0-1.18,0.42-2.18,1.27-3s1.86-1.23,3.03-1.23c1.15,0,2.15,0.42,2.98,1.25C56.02,2.2,56.44,3.19,56.44,4.34z"/>
<path class="st0" d="M70.71,27.51v-2.06c-2.8-1-5.06-2.65-6.79-4.93s-2.59-4.88-2.59-7.8c0-3.46,1.27-6.43,3.83-8.9
	c2.55-2.48,5.57-3.71,9.05-3.71c3.46,0,6.46,1.24,9.01,3.71c2.55,2.48,3.82,5.44,3.82,8.9c0,2.89-0.86,5.49-2.59,7.8
	s-3.99,3.95-6.79,4.93v2.06H70.71z M70.96,14.93h6.47v2.72c1.67-1.3,2.5-2.9,2.5-4.82c0-1.55-0.57-2.9-1.71-4.06
	s-2.48-1.75-4.03-1.75c-1.54,0-2.89,0.58-4.03,1.75s-1.71,2.52-1.71,4.06c0,1.94,0.83,3.55,2.5,4.82v-2.72H70.96z"/>
<path class="st0" d="M106.35,0.77v16.15c0,2.48-0.82,4.59-2.47,6.34c-1.64,1.75-3.7,2.63-6.18,2.63c-2.57,0-4.73-0.86-6.47-2.58
	c-1.74-1.71-2.61-3.85-2.61-6.4V0.76h7.32v15.89c0,0.49,0.15,0.9,0.44,1.23c0.29,0.33,0.69,0.5,1.18,0.5c0.46,0,0.84-0.17,1.12-0.52
	c0.28-0.34,0.42-0.75,0.42-1.21V0.76h7.25V0.77z"/>
<path class="st0" d="M118.34,7.8h4.89V0.83l-2.25,2.25h-2.74l2.39-2.34h-4.46c-1.82,0-3.43,0.66-4.86,1.99
	c-1.42,1.32-2.13,2.89-2.13,4.71v10.81c0,2.06,0.77,3.79,2.32,5.19c1.37,1.23,3.29,1.84,5.74,1.84h5.99v-7.02h-4.89
	c-0.44,0-0.78-0.01-1.01-0.04c-0.23-0.02-0.48-0.13-0.73-0.33c-0.26-0.2-0.39-0.49-0.39-0.88c0-0.34,0.1-0.61,0.29-0.81
	c0.2-0.2,0.4-0.31,0.63-0.35c0.22-0.04,0.52-0.06,0.88-0.06h4.78v-5.52h-4.3c-1.2,0-1.8-0.42-1.8-1.25
	C116.68,8.2,117.23,7.8,118.34,7.8z"/>
<path class="st0" d="M28.75,55.69c-7.62,0-14.25-2.74-19.88-8.22C3.23,42,0.41,35.45,0.42,27.83c0-7.62,2.74-14.08,8.21-19.41
	c5.48-5.32,12.5-7.97,20.12-7.97V55.69z"/>
<path class="st2" d="M24.7,28.08c0,5.58-4.53,10.11-10.11,10.11S4.48,33.66,4.48,28.08c0-5.59,4.53-10.12,10.11-10.12
	S24.7,22.49,24.7,28.08z"/>
<path class="st1" d="M16.22,32.16c0-0.54,0.19-1.01,0.58-1.42c0.38-0.41,0.84-0.62,1.38-0.62c0.57,0,1.06,0.2,1.48,0.6
	c0.41,0.4,0.62,0.88,0.62,1.44s-0.2,1.03-0.6,1.42c-0.4,0.39-0.88,0.58-1.44,0.58c-0.55,0-1.02-0.2-1.42-0.59
	C16.42,33.18,16.22,32.7,16.22,32.16z"/>
<polygon class="st1" points="19.89,22.28 19.82,29.64 16.8,29.64 16.62,22.28 "/>
<path class="st1" d="M13.42,29.78h-3.16v-0.66c0-0.57,0.08-1.04,0.24-1.41c0.16-0.37,0.36-0.62,0.59-0.78
	c0.23-0.15,0.46-0.28,0.68-0.37c0.23-0.09,0.42-0.21,0.58-0.34c0.16-0.13,0.25-0.32,0.25-0.55c0-0.21-0.08-0.39-0.23-0.53
	s-0.33-0.21-0.54-0.21c-0.53,0-0.79,0.39-0.79,1.17H8.08c0-0.87,0.16-1.6,0.48-2.17c0.34-0.58,0.81-1.05,1.42-1.42
	c0.61-0.36,1.26-0.54,1.93-0.54c1.06,0,1.96,0.35,2.7,1.07c0.74,0.71,1.11,1.58,1.11,2.62c0,0.6-0.13,1.17-0.4,1.69
	c-0.27,0.52-0.66,0.9-1.17,1.14c-0.31,0.14-0.52,0.3-0.6,0.47C13.47,29.15,13.42,29.42,13.42,29.78z"/>
<path class="st1" d="M9.88,32.16c0-0.54,0.2-1.01,0.58-1.42c0.39-0.41,0.85-0.62,1.39-0.62c0.56,0,1.05,0.2,1.46,0.6
	c0.41,0.4,0.62,0.88,0.62,1.44s-0.2,1.03-0.6,1.42c-0.4,0.39-0.88,0.58-1.44,0.58c-0.55,0-1.02-0.2-1.42-0.59
	C10.07,33.18,9.88,32.7,9.88,32.16z"/>
<g>
</g>
<g>
</g>
<g>
</g>
<g>
</g>
<g>
</g>
<g>
</g>
</svg>
